<svg width="514" height="291" viewBox="0 0 514 291" fill="none" xmlns="http://www.w3.org/2000/svg">
<mask id="mask0_2:18" style="mask-type:alpha" maskUnits="userSpaceOnUse" x="173" y="7" width="210" height="284">
<path d="M173.813 7.09668H382.928V290.942H173.813V7.09668Z" fill="#222222"/>
</mask>
<g mask="url(#mask0_2:18)">
<path fill-rule="evenodd" clip-rule="evenodd" d="M242.234 132.708C240.888 134.471 239.43 135.435 238.752 135.875C236.397 137.403 233.715 136.965 230.957 137.022C226.872 137.107 222.767 136.817 220.477 133.764C218.451 131.062 217.8 127.215 220.477 110.542C221.861 101.924 227.183 68.7812 231.79 69.3759C233.02 69.5348 233.706 72.0324 234.401 74.654C246.779 121.347 245.451 128.493 242.234 132.708ZM379.442 255.739C373.967 250.112 363.634 247.204 357.239 252.984C355.694 254.38 354.556 256.165 353.103 257.656C344.724 266.257 327.236 265.658 317.519 259.977C307.649 254.206 301.609 243.475 297.951 232.979C294.114 221.971 291.233 210.735 288.356 199.512C280.686 169.595 273.985 139.44 267.494 109.249C264.216 94.0005 260.992 78.7412 257.723 63.4914C254.802 49.867 253.226 34.7092 248.637 21.6008C247.007 16.9457 244.236 12.5364 240.115 9.82799C234.819 6.34837 227.539 6.18255 222.076 9.39315C215.408 13.3128 212.165 21.21 210.705 28.8061C208.401 40.7957 206.167 52.7507 203.852 64.7493C202.978 69.2765 202.084 73.7999 201.175 78.3193C199.357 87.3591 197.471 96.385 195.516 105.396C190.267 128.03 186.085 150.797 181.223 173.511C178.508 186.193 175.234 198.733 173.916 211.668C173.626 214.521 173.878 217.603 175.59 219.903C176.865 221.615 178.833 222.714 180.888 223.285C183.898 224.122 187.197 224.102 190.275 223.684C195.848 222.927 199.446 219.93 202.777 215.438C206.026 211.055 209.137 191.465 211.353 187.257C216.205 178.044 225.829 175.805 235.525 177.081C245.67 178.415 252.02 183.307 255.398 193.21C257.394 199.063 258.021 205.277 259.05 211.375C261.791 227.614 267.486 244.258 275.824 258.472C282.713 270.217 293.067 280.9 306.891 286.517C331.041 296.33 360.93 289.286 378.908 270.678C379.886 269.666 380.852 268.577 381.592 267.382C382.22 266.369 382.685 265.281 382.856 264.099C383.303 261.012 381.618 257.974 379.442 255.739Z" fill="#333333"/>
</g>
<mask id="mask1_2:18" style="mask-type:alpha" maskUnits="userSpaceOnUse" x="0" y="0" width="179" height="226">
<path d="M0 0H178.584V225.846H0V0Z" fill="#222222"/>
</mask>
<g mask="url(#mask1_2:18)">
<path fill-rule="evenodd" clip-rule="evenodd" d="M177.686 17.8267C176.256 12.3818 172.881 8.12449 165.935 7.18829C159.624 6.33804 153.457 10.1251 150.354 14.9313C147.252 19.737 146.548 25.3801 145.905 30.85C142.915 56.3094 139.923 81.7688 136.931 107.232C136.571 110.508 136.458 113.806 136.046 117.077C135.764 119.324 135.572 124.241 133.379 125.565C132.596 126.037 131.535 126.047 130.785 125.524C129.944 124.938 129.625 123.864 129.363 122.873C127.094 114.305 125.062 105.788 123.594 97.0397C121.714 85.8374 120.376 74.5491 118.397 63.3628C116.806 54.3718 115.205 45.1951 113.855 36.0932C112.5 26.9614 111.816 16.7557 103.699 10.7469C100.905 8.67895 96.8633 7.6335 93.4269 8.77956C90.1153 9.88373 88.0352 12.6927 86.4884 15.4447C80.9265 25.3421 79.3357 36.4861 77.6602 47.3849C76.3336 56.0097 74.9086 64.6189 73.3839 73.2109C71.85 81.8547 70.216 90.4808 68.4822 99.0874C67.6255 103.35 66.7213 107.602 65.8404 111.86C65.0998 115.44 64.5989 119.133 63.7758 122.737C63.2024 125.251 59.6256 125.306 59.002 122.804C58.7205 121.675 58.5076 120.534 58.2908 119.46C55.8938 107.579 54.803 95.3478 53.4959 83.3069C52.1507 70.9153 51.0315 58.5 50.1376 46.0683C49.9061 42.8503 49.6902 39.6315 49.489 36.4114C49.1202 30.4942 48.7713 24.4469 46.2136 18.9455C45.8466 18.1561 45.3707 17.4082 44.9445 16.6232C42.6165 12.3378 39.5774 8.33824 35.5571 5.57803C29.376 1.33451 21.6753 -0.406164 14.2087 0.0779085C11.1924 0.273524 8.11566 0.847848 5.55452 2.46286C1.40125 5.08187 -0.817884 10.4732 0.278513 15.2815C0.577334 16.5942 1.13611 17.9074 2.17119 18.7611C3.83889 20.1373 6.22773 19.9858 8.33632 20.4409C11.3979 21.1016 13.7635 22.8773 15.2286 25.4833C15.6492 26.2325 15.9688 27.0046 16.2037 27.8311C17.1818 31.268 17.5592 34.8513 17.8835 37.801C19.7114 54.4206 21.6943 71.0272 23.8318 87.6191C25.8277 103.112 27.9583 118.592 30.0889 134.071C31.6577 145.47 33.2266 156.87 34.9849 168.248C37.1522 182.273 39.5493 196.551 41.7671 210.388C42.5505 215.231 45.4415 220.895 48.3969 222.475C52.741 224.796 63.1289 224.981 69.2936 221.329C70.9467 220.35 72.5526 217.012 72.9015 215.123C84.4303 152.739 88.9342 129.865 90.4681 122.106C90.7988 120.434 90.8813 118.711 91.3032 117.059C92.2627 113.299 93.9317 110.472 95.5804 110.412C96.9398 110.363 97.8686 112.025 98.4136 113.034C99.6037 115.241 100.064 117.686 100.696 120.086C101.4 122.759 102.11 125.432 102.813 128.106C104.177 133.295 105.503 138.494 106.743 143.714C109.931 157.135 112.323 170.693 113.849 184.33C114.784 192.692 116.086 201.023 117.369 209.349C118.111 214.169 120.183 219.202 124.362 222.475C128.046 225.36 132.865 226.194 137.433 225.721C141.735 225.277 147.314 223.998 149.655 220.009C151.378 217.075 151.725 213.583 152.205 210.284C152.77 206.405 153.334 202.527 153.899 198.648C154.993 191.133 156.087 183.618 157.181 176.104C162.651 138.534 168.12 100.964 173.59 63.3939C174.683 55.8836 175.557 48.3198 176.893 40.8713C178.043 34.4501 179.592 25.0839 177.686 17.8267Z" fill="#333333"/>
</g>
<path fill-rule="evenodd" clip-rule="evenodd" d="M391.138 16.0069C389.018 12.7182 386.312 9.23899 382.561 8.6556C382.064 8.57787 381.562 8.53037 381.059 8.51007C377.701 8.37275 375.716 8.3503 372.759 9.88068C370.041 11.2867 367.06 13.5248 365.407 16.0069C364.051 18.0438 362.63 21.1953 361.71 23.4632C358.955 30.2523 357.9 37.5506 357.223 44.7883C356.656 50.8472 356.406 56.9333 355.752 62.9845C353.017 88.2612 349.517 113.762 340.527 137.507C340.038 138.797 338.23 138.862 337.674 137.599C326.378 111.915 324.956 75.4343 318.848 45.4127C316.831 35.4959 315.471 27.0335 311.497 18.4571C307.442 9.70795 302.989 6.67699 293.022 9.65224C279.116 13.8029 278.048 21.9929 280.866 34.3857C281.956 39.1802 284.415 48.7032 285.767 52.7641C291.907 71.2094 298.418 103.634 302.92 122.603C305.154 132.013 307.332 140.981 309.046 150.783C310.408 158.561 313.593 171.141 315.173 178.964C317.923 192.589 321.319 205.056 327.425 216.946C335.151 231.99 348.216 229.858 354.887 213.471C360.83 198.883 363.125 182.908 366.201 167.542C369.64 150.365 373.064 133.184 376.498 116.006L383.868 79.1476C386.15 67.7371 392.901 37.1464 393.588 25.8089C393.618 25.3127 393.374 19.4762 391.138 16.0069Z" fill="#333333"/>
<path fill-rule="evenodd" clip-rule="evenodd" d="M456.517 86.4041C463.897 90.1739 472.108 61.1295 473.158 56.5954C474.702 49.9302 477.546 40.1417 480.51 30.9616C483.948 20.3102 487.87 11.6565 495.212 7.76927C498.938 5.7967 503.785 6.93369 507.464 8.99003C513.728 12.4899 514.732 16.391 513.591 22.4171C507.403 55.0879 487.373 81.7098 479.285 113.966C473.059 138.792 472.744 173.158 474.37 198.696C474.677 203.52 475.053 208.398 474.203 213.155C473.026 219.746 471.723 224.796 464.34 226.237C459.967 227.091 452.878 228.063 449.636 225.016C444.543 220.228 444.723 212.82 444.883 206.638C446.057 160.963 438.445 115.04 422.461 72.2092C416.997 57.5675 410.708 39.0608 408.22 23.6374C407.244 17.5807 406.742 12.61 413.122 8.9896C416.695 6.9609 422.925 5.92582 426.599 7.76927C438.912 13.9469 439.842 25.369 442.527 38.2853C445.291 51.5759 448.6 69.7474 454.146 82.3372" fill="#333333"/>
</svg>
